<?xml version="1.0" encoding="UTF-8" standalone="no"?>
<svg
   id="preview"
   width="600"
   height="600"
   viewBox="0 0 600 600"
   xunitlength="94"
   yunitlength="94"
   xmin="0"
   xmax="5"
   ymin="0"
   ymax="5"
   ox="40"
   oy="40"
   version="1.1"
   xmlns="http://www.w3.org/2000/svg"
   xmlns:svg="http://www.w3.org/2000/svg">
  <defs
     id="defs1">
    <style
       type="text/css"
       id="style1">@import url(&quot;http://cdnjs.cloudflare.com/ajax/libs/KaTeX/0.2.0/katex.min.css&quot;)</style>
  </defs>
  <path
     d="M 524.4,552.8 546,560 524.4,567.2 528,560 Z"
     stroke-width="1"
     stroke="#000000"
     fill="#000000"
     id="path1" />
  <path
     d="M 32.8,75.6 40,54 47.2,75.6 40,72 Z"
     stroke-width="1"
     stroke="#000000"
     fill="#000000"
     id="path2" />
  <path
     d="M 22,560 H 528 M 40,72 v 506"
     stroke-width="2"
     stroke="#000000"
     fill="none"
     id="path3" />
  <path
     d="m 29.958008,24.824203 h -1.326172 q 0.05469,-0.287109 0.05469,-0.546875 0,-0.628906 -0.328125,-1.011718 -0.464843,-0.533203 -1.544921,-0.533203 -1.408204,0 -2.132813,0.779296 -0.724609,0.765625 -1.107422,2.748047 l -0.36914,1.873047 h 4.060546 l -0.287109,1.462891 h -4.060547 l -2.707031,13.972656 q -0.478516,2.433594 -1.982422,3.677734 -1.503906,1.244141 -3.951172,1.244141 l 0.164063,-1.339844 q 1.435547,0 2.132812,-0.765625 0.72461,-0.820312 1.121094,-2.816406 L 20.40137,29.595688 h -2.40625 l 0.28711,-1.462891 h 2.40625 l 0.355468,-1.818359 q 0.478516,-2.447266 1.982422,-3.677735 1.503906,-1.24414 3.951172,-1.24414 0.916016,0 1.791016,0.164062 0.888672,0.164063 1.736328,0.50586 z m 2.84375,22.203125 q -3.035156,-1.490234 -4.101563,-4.716796 -1.066406,-3.240235 -0.123047,-8.09375 0.94336,-4.867188 3.267579,-8.09375 2.324218,-3.240235 5.933593,-4.730469 l -0.259765,1.339844 q -2.378907,1.449218 -3.814453,4.08789 -1.421875,2.625 -2.351563,7.396485 -0.929687,4.757812 -0.533203,7.396484 0.410156,2.625 2.242187,4.074219 z M 39.077148,42.666 h -1.708984 l 6.412109,-6.972656 -3.226562,-6.097656 h -1.791016 l 0.273438,-1.462891 h 3.691406 l 3.021484,5.660156 5.208985,-5.660156 h 1.708984 l -6.289062,6.835938 3.322265,6.248047 h 1.900391 L 51.327148,42.666 h -3.814453 l -3.089843,-5.796875 z m 13.507813,4.361328 0.259766,-1.339843 q 2.378906,-1.449219 3.814453,-4.074219 1.435547,-2.638672 2.365234,-7.396484 0.929688,-4.771485 0.519531,-7.396485 -0.410156,-2.638672 -2.242187,-4.08789 l 0.259765,-1.339844 q 3.048829,1.490234 4.115235,4.730469 1.066406,3.226562 0.123047,8.09375 -0.94336,4.853515 -3.267578,8.09375 -2.324219,3.226562 -5.947266,4.716796 z"
     id="null"
     style="font-style:italic;font-size:28px;font-family:KaTeX_Main, serif;text-anchor:middle;stroke-width:0px"
     aria-label="f(x)" />
  <text
     id="text3"
     x="557.33301"
     y="569.33301"
     font-style="italic"
     font-family="KaTeX_Main, serif"
     font-size="28px"
     font-weight="normal"
     text-anchor="start"
     fill="#000000"
     stroke-width="0px">x</text>
  <path
     id="path10"
     d="m 40.94,465.998 0.78,-0.005 0.78,-0.006 0.78,-0.01 0.78,-0.011 0.78,-0.015 0.781,-0.016 0.78,-0.02 0.78,-0.021 0.78,-0.025 0.78,-0.027 0.781,-0.029 0.78,-0.032 0.78,-0.034 0.78,-0.037 0.78,-0.039 0.781,-0.042 0.78,-0.044 0.78,-0.047 0.78,-0.049 0.78,-0.052 0.781,-0.054 0.78,-0.057 0.78,-0.059 0.78,-0.062 0.78,-0.064 0.781,-0.067 0.78,-0.069 0.78,-0.072 0.78,-0.074 0.78,-0.077 0.781,-0.079 0.78,-0.081 0.78,-0.085 0.78,-0.086 0.78,-0.089 0.781,-0.092 0.78,-0.094 0.78,-0.097 0.78,-0.099 0.78,-0.101 0.781,-0.105 0.78,-0.106 0.78,-0.109 0.78,-0.112 0.78,-0.114 0.781,-0.116 0.78,-0.119 0.78,-0.122 0.78,-0.123 0.78,-0.127 0.781,-0.129 0.78,-0.131 0.78,-0.134 0.78,-0.136 0.78,-0.139 0.781,-0.141 0.78,-0.144 0.78,-0.146 0.78,-0.149 0.78,-0.151 0.781,-0.153 0.78,-0.156 0.78,-0.159 0.78,-0.161 0.78,-0.163 0.781,-0.166 0.78,-0.168 0.78,-0.171 0.78,-0.173 0.78,-0.176 0.781,-0.178 0.78,-0.18 0.78,-0.183 0.78,-0.186 0.78,-0.188 0.781,-0.19 0.78,-0.193 0.78,-0.195 0.78,-0.198 0.78,-0.2 0.781,-0.202 0.78,-0.205 0.78,-0.208 0.78,-0.209 0.78,-0.213 0.781,-0.214 0.78,-0.217 0.78,-0.22 0.78,-0.222 0.78,-0.224 0.781,-0.227 0.78,-0.229 0.78,-0.232 0.78,-0.234 0.78,-0.236 0.781,-0.239 0.78,-0.241 0.78,-0.244 0.78,-0.246 0.78,-0.248 0.781,-0.251 0.78,-0.254 0.78,-0.255 0.78,-0.258 0.78,-0.261 0.781,-0.262 0.78,-0.266 0.78,-0.267 0.78,-0.27 0.78,-0.273 0.781,-0.274 0.78,-0.277 0.78,-0.28 0.78,-0.282 0.78,-0.284 0.781,-0.287 0.78,-0.289 0.78,-0.291 0.78,-0.294 0.78,-0.296 0.781,-0.298 0.78,-0.301 0.78,-0.303 0.78,-0.305 0.78,-0.308 0.781,-0.31 0.78,-0.313 0.78,-0.315 0.78,-0.317 0.78,-0.319 0.781,-0.322 0.78,-0.324 0.78,-0.327 0.78,-0.329 0.78,-0.331 0.781,-0.333 0.78,-0.336 0.78,-0.338 0.78,-0.341 0.78,-0.342 0.781,-0.345 0.78,-0.348 0.78,-0.349 0.78,-0.352 0.78,-0.355 0.781,-0.356 0.78,-0.359 0.78,-0.361 0.78,-0.363 0.78,-0.366 0.781,-0.368 0.78,-0.37 0.78,-0.373 0.78,-0.375 0.78,-0.377 0.781,-0.379 0.78,-0.382 0.78,-0.384 0.78,-0.386 0.78,-0.388 0.781,-0.391 0.78,-0.393 0.78,-0.395 0.78,-0.397 0.78,-0.4 0.781,-0.402 0.78,-0.404 0.78,-0.406 0.78,-0.409 0.78,-0.411 0.781,-0.413 0.78,-0.415 0.78,-0.418 0.78,-0.419 0.78,-0.422 0.781,-0.424 0.78,-0.427 0.78,-0.428 0.78,-0.431 0.78,-0.433 0.781,-0.435 0.78,-0.437 0.78,-0.44 0.78,-0.442 0.78,-0.444 0.781,-0.446 0.78,-0.448 0.78,-0.45 0.78,-0.453 0.78,-0.455 0.781,-0.457 0.78,-0.459 0.78,-0.461 0.78,-0.463 0.78,-0.466 0.781,-0.468 0.78,-0.47 0.78,-0.472 0.78,-0.474 0.78,-0.476 0.781,-0.479 0.78,-0.48 0.78,-0.483 0.78,-0.485 0.78,-0.487 0.781,-0.489 0.78,-0.491 0.78,-0.493 0.78,-0.496 0.78,-0.497 0.781,-0.5 0.78,-0.501 0.78,-0.504 0.78,-0.506 0.78,-0.508 0.781,-0.51 0.78,-0.512 0.78,-0.514 0.78,-0.517 0.78,-0.518 0.781,-0.52 0.78,-0.523 0.78,-0.525 0.78,-0.526 0.78,-0.529 0.781,-0.531 0.78,-0.532 0.78,-0.535 0.78,-0.537 0.78,-0.539 0.781,-0.541 0.78,-0.543 0.78,-0.545 0.78,-0.547 0.78,-0.549 0.781,-0.551 0.78,-0.553 0.78,-0.555 0.78,-0.557 0.78,-0.56 0.781,-0.561 0.78,-0.563 0.78,-0.565 0.78,-0.567 0.78,-0.569 0.781,-0.571 0.78,-0.573 0.78,-0.575 0.78,-0.577 0.78,-0.579 0.781,-0.581 0.78,-0.583 0.78,-0.585 0.78,-0.587 0.78,-0.588 0.781,-0.591 0.78,-0.593 0.78,-0.594 0.78,-0.597 0.78,-0.598 0.78,-0.601 0.781,-0.602 0.78,-0.604 0.78,-0.607 0.78,-0.608 0.78,-0.61 0.781,-0.612 0.78,-0.614 0.78,-0.615 0.78,-0.618 0.78,-0.619 0.781,-0.622 0.78,-0.623 0.78,-0.625 0.78,-0.627 0.78,-0.629 0.781,-0.631 0.78,-0.633 0.78,-0.635 0.78,-0.636 0.78,-0.638 0.781,-0.64 0.78,-0.642 0.78,-0.644 0.78,-0.646 0.78,-0.648 0.781,-0.649 0.78,-0.651 0.78,-0.653 0.78,-0.655 0.78,-0.657 0.781,-0.658 0.78,-0.661 0.78,-0.662 0.78,-0.664 0.78,-0.666 0.781,-0.667 0.78,-0.67 0.78,-0.671 0.78,-0.673 0.78,-0.675 0.781,-0.676 0.78,-0.679 0.78,-0.68 0.78,-0.682 0.78,-0.683 0.781,-0.686 0.78,-0.687 0.78,-0.689 0.78,-0.691 0.78,-0.692 0.781,-0.694 0.78,-0.696 0.78,-0.698 0.78,-0.7 0.78,-0.701 0.781,-0.703 0.78,-0.704 0.78,-0.707 0.78,-0.708 0.78,-0.71 0.781,-0.711 0.78,-0.714 0.78,-0.714 0.78,-0.717 0.78,-0.719 0.781,-0.72 0.78,-0.721 0.78,-0.724 0.78,-0.725 0.78,-0.727 0.781,-0.728 0.78,-0.73 0.78,-0.732 0.78,-0.734 0.78,-0.735 0.781,-0.737 0.78,-0.738 0.78,-0.74 0.78,-0.742 0.78,-0.744 0.781,-0.745 0.78,-0.747 0.78,-0.748 0.78,-0.75 0.78,-0.752 0.781,-0.753 0.78,-0.755 0.78,-0.756 0.78,-0.758 0.78,-0.76 0.781,-0.762 0.78,-0.762 0.78,-0.765 0.78,-0.766 0.78,-0.768 0.781,-0.769 0.78,-0.771 0.78,-0.773 0.78,-0.774 0.78,-0.776 0.781,-0.777 0.78,-0.779 0.78,-0.78 0.78,-0.782 0.78,-0.783 0.781,-0.786 0.78,-0.786 0.78,-0.788 0.78,-0.79 0.78,-0.791 0.781,-0.793 0.78,-0.794 0.78,-0.796 0.78,-0.798 0.78,-0.799 0.781,-0.8 0.78,-0.802 0.78,-0.804 0.78,-0.805 0.78,-0.806 0.781,-0.808 0.78,-0.81 0.78,-0.811 0.78,-0.812 0.78,-0.814 0.781,-0.816 0.78,-0.817 0.78,-0.818 0.78,-0.82 0.78,-0.822 0.781,-0.822 0.78,-0.825 0.78,-0.826 0.78,-0.827 0.78,-0.829 0.781,-0.83 0.78,-0.832 0.78,-0.833 0.78,-0.834 0.78,-0.836 0.781,-0.838 0.78,-0.838 0.78,-0.841 0.78,-0.841 0.78,-0.844 0.781,-0.844 0.78,-0.846 0.78,-0.848 0.78,-0.848 0.78,-0.851 0.781,-0.851 0.78,-0.853 0.78,-0.855 0.78,-0.856 0.78,-0.857 0.781,-0.859 0.78,-0.86 0.78,-0.861 0.78,-0.863 0.78,-0.864 0.781,-0.865 0.78,-0.867 0.78,-0.869 0.78,-0.869 0.78,-0.871 0.781,-0.872 0.78,-0.874 0.78,-0.875 0.78,-0.877 0.78,-0.877 0.781,-0.879 0.78,-0.881 0.78,-0.882 0.78,-0.883 0.78,-0.884 0.781,-0.886 0.78,-0.887 0.78,-0.888 0.78,-0.89 0.78,-0.891 0.781,-0.892 0.78,-0.894 0.78,-0.895 0.78,-0.896 0.78,-0.898 0.781,-0.899 0.78,-0.9 0.78,-0.901 0.78,-0.903 0.78,-0.904 0.781,-0.905 0.78,-0.907 0.78,-0.907 0.78,-0.909 0.78,-0.911 0.781,-0.911 0.78,-0.913 0.78,-0.914 0.78,-0.916 0.78,-0.916 0.781,-0.918 0.78,-0.919 0.78,-0.921 0.78,-0.921 0.78,-0.923 0.781,-0.924 0.78,-0.926 0.78,-0.926 0.78,-0.928 0.78,-0.929 0.781,-0.93 0.78,-0.932 0.78,-0.932 0.78,-0.934 0.78,-0.935 0.781,-0.936 0.78,-0.938 0.78,-0.939 0.78,-0.939 0.78,-0.942 0.781,-0.942 0.78,-0.943 0.78,-0.945 0.78,-0.946 0.78,-0.947 0.781,-0.948 0.78,-0.949 0.78,-0.951 0.78,-0.951 0.78,-0.953 0.781,-0.954 0.78,-0.955 0.78,-0.957 0.78,-0.957 0.78,-0.959 0.781,-0.959 0.78,-0.961 0.78,-0.962 0.78,-0.964 0.78,-0.964 0.781,-0.965 0.78,-0.967 0.78,-0.968 0.78,-0.968 0.78,-0.97 0.781,-0.971 0.78,-0.973 0.78,-0.973 0.78,-0.974 0.78,-0.976 0.781,-0.977 0.78,-0.977 0.78,-0.979 0.78,-0.98 0.78,-0.981 0.78,-0.982 0.781,-0.983 0.78,-0.985 0.78,-0.985 0.78,-0.987 0.78,-0.987 0.781,-0.989 0.78,-0.989 0.78,-0.991 0.78,-0.992 0.78,-0.993 0.781,-0.994 0.78,-0.995 0.78,-0.996 0.78,-0.997 0.78,-0.998 0.781,-1 0.78,-1 0.78,-1.001 0.78,-1.003 0.78,-1.003 0.781,-1.005 0.78,-1.005 0.78,-1.007 0.78,-1.007 0.78,-1.009 0.781,-1.009 0.78,-1.011 0.78,-1.012 0.78,-1.012 0.78,-1.014 0.781,-1.015 0.78,-1.015 0.78,-1.017 0.78,-1.018 0.78,-1.018 0.781,-1.02 0.78,-1.021 0.78,-1.022 0.78,-1.022 0.78,-1.024 0.781,-1.025 0.78,-1.025 0.78,-1.027 0.78,-1.028 0.78,-1.028 0.781,-1.03 0.78,-1.03 0.78,-1.032 0.78,-1.032 0.78,-1.034 0.781,-1.034 0.78,-1.036 0.78,-1.036 0.78,-1.037 0.78,-1.038 0.781,-1.04 0.78,-1.04 0.78,-1.041 0.78,-1.042 0.78,-1.043 0.781,-1.044 0.78,-1.045 0.78,-1.045 0.78,-1.047 0.78,-1.048 0.781,-1.048 0.78,-1.05 0.78,-1.05 0.78,-1.052 0.78,-1.052 0.781,-1.053 0.78,-1.054 0.78,-1.055 0.78,-1.056 0.78,-1.057 0.781,-1.058 0.78,-1.058 0.78,-1.06 0.78,-1.06 0.78,-1.061 0.781,-1.063 0.78,-1.063 0.78,-1.064"
     stroke-width="5"
     stroke="#0000ff"
     fill="none" />
  <circle
     id="circle11"
     cx="40.939999"
     cy="465.99799"
     r="7.5"
     stroke-width="5"
     stroke="#0000ff"
     fill="#ffffff" />
  <circle
     id="circle12"
     cx="509.05899"
     cy="91.282997"
     r="7.5"
     stroke-width="5"
     stroke="#0000ff"
     fill="#ffffff" />
</svg>
