<?xml version="1.0" encoding="UTF-8" standalone="no"?>
<svg
   id="preview"
   width="600"
   height="600"
   viewBox="0 0 600 600"
   xunitlength="94"
   yunitlength="94"
   xmin="0"
   xmax="5"
   ymin="0"
   ymax="5"
   ox="40"
   oy="40"
   version="1.1"
   xmlns="http://www.w3.org/2000/svg"
   xmlns:svg="http://www.w3.org/2000/svg">
  <defs
     id="defs1">
    <style
       type="text/css"
       id="style1">@import url(&quot;http://cdnjs.cloudflare.com/ajax/libs/KaTeX/0.2.0/katex.min.css&quot;)</style>
  </defs>
  <path
     d="M 524.4,552.8 546,560 524.4,567.2 528,560 Z"
     stroke-width="1"
     stroke="#000000"
     fill="#000000"
     id="path1" />
  <path
     d="M 32.8,75.6 40,54 47.2,75.6 40,72 Z"
     stroke-width="1"
     stroke="#000000"
     fill="#000000"
     id="path2" />
  <path
     d="M 22,560 H 528 M 40,72 v 506"
     stroke-width="2"
     stroke="#000000"
     fill="none"
     id="path3" />
  <path
     d="m 29.958008,24.824203 h -1.326172 q 0.05469,-0.287109 0.05469,-0.546875 0,-0.628906 -0.328125,-1.011718 -0.464843,-0.533203 -1.544921,-0.533203 -1.408204,0 -2.132813,0.779296 -0.724609,0.765625 -1.107422,2.748047 l -0.36914,1.873047 h 4.060546 l -0.287109,1.462891 h -4.060547 l -2.707031,13.972656 q -0.478516,2.433594 -1.982422,3.677734 -1.503906,1.244141 -3.951172,1.244141 l 0.164063,-1.339844 q 1.435547,0 2.132812,-0.765625 0.72461,-0.820312 1.121094,-2.816406 L 20.40137,29.595688 h -2.40625 l 0.28711,-1.462891 h 2.40625 l 0.355468,-1.818359 q 0.478516,-2.447266 1.982422,-3.677735 1.503906,-1.24414 3.951172,-1.24414 0.916016,0 1.791016,0.164062 0.888672,0.164063 1.736328,0.50586 z m 2.84375,22.203125 q -3.035156,-1.490234 -4.101563,-4.716796 -1.066406,-3.240235 -0.123047,-8.09375 0.94336,-4.867188 3.267579,-8.09375 2.324218,-3.240235 5.933593,-4.730469 l -0.259765,1.339844 q -2.378907,1.449218 -3.814453,4.08789 -1.421875,2.625 -2.351563,7.396485 -0.929687,4.757812 -0.533203,7.396484 0.410156,2.625 2.242187,4.074219 z M 39.077148,42.666 h -1.708984 l 6.412109,-6.972656 -3.226562,-6.097656 h -1.791016 l 0.273438,-1.462891 h 3.691406 l 3.021484,5.660156 5.208985,-5.660156 h 1.708984 l -6.289062,6.835938 3.322265,6.248047 h 1.900391 L 51.327148,42.666 h -3.814453 l -3.089843,-5.796875 z m 13.507813,4.361328 0.259766,-1.339843 q 2.378906,-1.449219 3.814453,-4.074219 1.435547,-2.638672 2.365234,-7.396484 0.929688,-4.771485 0.519531,-7.396485 -0.410156,-2.638672 -2.242187,-4.08789 l 0.259765,-1.339844 q 3.048829,1.490234 4.115235,4.730469 1.066406,3.226562 0.123047,8.09375 -0.94336,4.853515 -3.267578,8.09375 -2.324219,3.226562 -5.947266,4.716796 z"
     id="null"
     style="font-style:italic;font-size:28px;font-family:KaTeX_Main, serif;text-anchor:middle;stroke-width:0px"
     aria-label="f(x)" />
  <path
     d="m 559.12402,569.33301 h -1.70898 l 6.41211,-6.97266 -3.22656,-6.09765 h -1.79102 l 0.27344,-1.4629 h 3.6914 l 3.02149,5.66016 5.20898,-5.66016 h 1.70899 l -6.28907,6.83594 3.32227,6.24805 h 1.90039 l -0.27344,1.44922 h -3.81445 l -3.08984,-5.79688 z"
     id="text3"
     style="font-style:italic;font-size:28px;font-family:KaTeX_Main, serif;stroke-width:0px"
     aria-label="x" />
  <path
     id="path8"
     d="m 40.94,465.248 0.78,-0.625 0.78,-0.624 0.78,-0.624 0.78,-0.624 0.78,-0.624 0.781,-0.624 0.78,-0.625 0.78,-0.624 0.78,-0.624 0.78,-0.624 0.781,-0.624 0.78,-0.624 0.78,-0.625 0.78,-0.624 0.78,-0.624 0.781,-0.624 0.78,-0.624 0.78,-0.624 0.78,-0.625 0.78,-0.624 0.781,-0.624 0.78,-0.624 0.78,-0.624 0.78,-0.624 0.78,-0.624 0.781,-0.625 0.78,-0.624 0.78,-0.624 0.78,-0.624 0.78,-0.624 0.781,-0.624 0.78,-0.625 0.78,-0.624 0.78,-0.624 0.78,-0.624 0.781,-0.624 0.78,-0.624 0.78,-0.625 0.78,-0.624 0.78,-0.624 0.781,-0.624 0.78,-0.624 0.78,-0.624 0.78,-0.625 0.78,-0.624 0.781,-0.624 0.78,-0.624 0.78,-0.624 0.78,-0.624 0.78,-0.624 0.781,-0.625 0.78,-0.624 0.78,-0.624 0.78,-0.624 0.78,-0.624 0.781,-0.624 0.78,-0.625 0.78,-0.624 0.78,-0.624 0.78,-0.624 0.781,-0.624 0.78,-0.624 0.78,-0.625 0.78,-0.624 0.78,-0.624 0.781,-0.624 0.78,-0.624 0.78,-0.624 0.78,-0.624 0.78,-0.625 0.781,-0.624 0.78,-0.624 0.78,-0.624 0.78,-0.624 0.78,-0.624 0.781,-0.625 0.78,-0.624 0.78,-0.624 0.78,-0.624 0.78,-0.624 0.781,-0.624 0.78,-0.625 0.78,-0.624 0.78,-0.624 0.78,-0.624 0.781,-0.624 0.78,-0.624 0.78,-0.625 0.78,-0.624 0.78,-0.624 0.781,-0.624 0.78,-0.624 0.78,-0.624 0.78,-0.624 0.78,-0.625 0.781,-0.624 0.78,-0.624 0.78,-0.624 0.78,-0.624 0.78,-0.624 0.781,-0.625 0.78,-0.624 0.78,-0.624 0.78,-0.624 0.78,-0.624 0.781,-0.624 0.78,-0.625 0.78,-0.624 0.78,-0.624 0.78,-0.624 0.781,-0.624 0.78,-0.624 0.78,-0.625 0.78,-0.624 0.78,-0.624 0.781,-0.624 0.78,-0.624 0.78,-0.624 0.78,-0.624 0.78,-0.625 0.781,-0.624 0.78,-0.624 0.78,-0.624 0.78,-0.624 0.78,-0.624 0.781,-0.625 0.78,-0.624 0.78,-0.624 0.78,-0.624 0.78,-0.624 0.781,-0.624 0.78,-0.625 0.78,-0.624 0.78,-0.624 0.78,-0.624 0.781,-0.624 0.78,-0.624 0.78,-0.624 0.78,-0.625 0.78,-0.624 0.781,-0.624 0.78,-0.624 0.78,-0.624 0.78,-0.624 0.78,-0.625 0.781,-0.624 0.78,-0.624 0.78,-0.624 0.78,-0.624 0.78,-0.624 0.781,-0.625 0.78,-0.624 0.78,-0.624 0.78,-0.624 0.78,-0.624 0.781,-0.624 0.78,-0.625 0.78,-0.624 0.78,-0.624 0.78,-0.624 0.781,-0.624 0.78,-0.624 0.78,-0.624 0.78,-0.625 0.78,-0.624 0.781,-0.624 0.78,-0.624 0.78,-0.624 0.78,-0.624 0.78,-0.625 0.781,-0.624 0.78,-0.624 0.78,-0.624 0.78,-0.624 0.78,-0.624 0.781,-0.625 0.78,-0.624 0.78,-0.624 0.78,-0.624 0.78,-0.624 0.781,-0.624 0.78,-0.625 0.78,-0.624 0.78,-0.624 0.78,-0.624 0.781,-0.624 0.78,-0.624 0.78,-0.624 0.78,-0.625 0.78,-0.624 0.781,-0.624 0.78,-0.624 0.78,-0.624 0.78,-0.624 0.78,-0.625 0.781,-0.624 0.78,-0.624 0.78,-0.624 0.78,-0.624 0.78,-0.624 0.781,-0.625 0.78,-0.624 0.78,-0.624 0.78,-0.624 0.78,-0.624 0.781,-0.624 0.78,-0.624 0.78,-0.625 0.78,-0.624 0.78,-0.624 0.781,-0.624 0.78,-0.624 0.78,-0.624 0.78,-0.625 0.78,-0.624 0.781,-0.624 0.78,-0.624 0.78,-0.624 0.78,-0.624 0.78,-0.625 0.781,-0.624 0.78,-0.624 0.78,-0.624 0.78,-0.624 0.78,-0.624 0.781,-0.625 0.78,-0.624 0.78,-0.624 0.78,-0.624 0.78,-0.624 0.781,-0.624 0.78,-0.624 0.78,-0.625 0.78,-0.624 0.78,-0.624 0.781,-0.624 0.78,-0.624 0.78,-0.624 0.78,-0.625 0.78,-0.624 0.781,-0.624 0.78,-0.624 0.78,-0.624 0.78,-0.624 0.78,-0.625 0.781,-0.624 0.78,-0.624 0.78,-0.624 0.78,-0.624 0.78,-0.624 0.781,-0.625 0.78,-0.624 0.78,-0.624 0.78,-0.624 0.78,-0.624 0.781,-0.624 0.78,-0.624 0.78,-0.625 0.78,-0.624 0.78,-0.624 0.78,-0.624 0.781,-0.624 0.78,-0.624 0.78,-0.625 0.78,-0.624 0.78,-0.624 0.781,-0.624 0.78,-0.624 0.78,-0.624 0.78,-0.625 0.78,-0.624 0.781,-0.624 0.78,-0.624 0.78,-0.624 0.78,-0.624 0.78,-0.624 0.781,-0.625 0.78,-0.624 0.78,-0.624 0.78,-0.624 0.78,-0.624 0.781,-0.624 0.78,-0.625 0.78,-0.624 0.78,-0.624 0.78,-0.624 0.781,-0.624 0.78,-0.624 0.78,-0.625 0.78,-0.624 0.78,-0.624 0.781,-0.624 0.78,-0.624 0.78,-0.624 0.78,-0.625 0.78,-0.624 0.781,-0.624 0.78,-0.624 0.78,-0.624 0.78,-0.624 0.78,-0.624 0.781,-0.625 0.78,-0.624 0.78,-0.624 0.78,-0.624 0.78,-0.624 0.781,-0.624 0.78,-0.625 0.78,-0.624 0.78,-0.624 0.78,-0.624 0.781,-0.624 0.78,-0.624 0.78,-0.625 0.78,-0.624 0.78,-0.624 0.781,-0.624 0.78,-0.624 0.78,-0.624 0.78,-0.625 0.78,-0.624 0.781,-0.624 0.78,-0.624 0.78,-0.624 0.78,-0.624 0.78,-0.624 0.781,-0.625 0.78,-0.624 0.78,-0.624 0.78,-0.624 0.78,-0.624 0.781,-0.624 0.78,-0.625 0.78,-0.624 0.78,-0.624 0.78,-0.624 0.781,-0.624 0.78,-0.624 0.78,-0.625 0.78,-0.624 0.78,-0.624 0.781,-0.624 0.78,-0.624 0.78,-0.624 0.78,-0.624 0.78,-0.625 0.781,-0.624 0.78,-0.624 0.78,-0.624 0.78,-0.624 0.78,-0.624 0.781,-0.625 0.78,-0.624 0.78,-0.624 0.78,-0.624 0.78,-0.624 0.781,-0.624 0.78,-0.625 0.78,-0.624 0.78,-0.624 0.78,-0.624 0.781,-0.624 0.78,-0.624 0.78,-0.625 0.78,-0.624 0.78,-0.624 0.781,-0.624 0.78,-0.624 0.78,-0.624 0.78,-0.624 0.78,-0.625 0.781,-0.624 0.78,-0.624 0.78,-0.624 0.78,-0.624 0.78,-0.624 0.781,-0.625 0.78,-0.624 0.78,-0.624 0.78,-0.624 0.78,-0.624 0.781,-0.624 0.78,-0.625 0.78,-0.624 0.78,-0.624 0.78,-0.624 0.781,-0.624 0.78,-0.624 0.78,-0.624 0.78,-0.625 0.78,-0.624 0.781,-0.624 0.78,-0.624 0.78,-0.624 0.78,-0.624 0.78,-0.625 0.781,-0.624 0.78,-0.624 0.78,-0.624 0.78,-0.624 0.78,-0.624 0.781,-0.625 0.78,-0.624 0.78,-0.624 0.78,-0.624 0.78,-0.624 0.781,-0.624 0.78,-0.625 0.78,-0.624 0.78,-0.624 0.78,-0.624 0.781,-0.624 0.78,-0.624 0.78,-0.624 0.78,-0.625 0.78,-0.624 0.781,-0.624 0.78,-0.624 0.78,-0.624 0.78,-0.624 0.78,-0.625 0.781,-0.624 0.78,-0.624 0.78,-0.624 0.78,-0.624 0.78,-0.624 0.781,-0.625 0.78,-0.624 0.78,-0.624 0.78,-0.624 0.78,-0.624 0.781,-0.624 0.78,-0.625 0.78,-0.624 0.78,-0.624 0.78,-0.624 0.781,-0.624 0.78,-0.624 0.78,-0.624 0.78,-0.625 0.78,-0.624 0.781,-0.624 0.78,-0.624 0.78,-0.624 0.78,-0.624 0.78,-0.625 0.781,-0.624 0.78,-0.624 0.78,-0.624 0.78,-0.624 0.78,-0.624 0.781,-0.625 0.78,-0.624 0.78,-0.624 0.78,-0.624 0.78,-0.624 0.781,-0.624 0.78,-0.624 0.78,-0.625 0.78,-0.624 0.78,-0.624 0.781,-0.624 0.78,-0.624 0.78,-0.624 0.78,-0.625 0.78,-0.624 0.781,-0.624 0.78,-0.624 0.78,-0.624 0.78,-0.624 0.78,-0.625 0.781,-0.624 0.78,-0.624 0.78,-0.624 0.78,-0.624 0.78,-0.624 0.781,-0.625 0.78,-0.624 0.78,-0.624 0.78,-0.624 0.78,-0.624 0.781,-0.624 0.78,-0.624 0.78,-0.625 0.78,-0.624 0.78,-0.624 0.781,-0.624 0.78,-0.624 0.78,-0.624 0.78,-0.625 0.78,-0.624 0.781,-0.624 0.78,-0.624 0.78,-0.624 0.78,-0.624 0.78,-0.625 0.781,-0.624 0.78,-0.624 0.78,-0.624 0.78,-0.624 0.78,-0.624 0.781,-0.625 0.78,-0.624 0.78,-0.624 0.78,-0.624 0.78,-0.624 0.781,-0.624 0.78,-0.624 0.78,-0.625 0.78,-0.624 0.78,-0.624 0.781,-0.624 0.78,-0.624 0.78,-0.624 0.78,-0.625 0.78,-0.624 0.78,-0.624 0.781,-0.624 0.78,-0.624 0.78,-0.624 0.78,-0.625 0.78,-0.624 0.781,-0.624 0.78,-0.624 0.78,-0.624 0.78,-0.624 0.78,-0.624 0.781,-0.625 0.78,-0.624 0.78,-0.624 0.78,-0.624 0.78,-0.624 0.781,-0.624 0.78,-0.625 0.78,-0.624 0.78,-0.624 0.78,-0.624 0.781,-0.624 0.78,-0.624 0.78,-0.625 0.78,-0.624 0.78,-0.624 0.781,-0.624 0.78,-0.624 0.78,-0.624 0.78,-0.625 0.78,-0.624 0.781,-0.624 0.78,-0.624 0.78,-0.624 0.78,-0.624 0.78,-0.624 0.781,-0.625 0.78,-0.624 0.78,-0.624 0.78,-0.624 0.78,-0.624 0.781,-0.624 0.78,-0.625 0.78,-0.624 0.78,-0.624 0.78,-0.624 0.781,-0.624 0.78,-0.624 0.78,-0.625 0.78,-0.624 0.78,-0.624 0.781,-0.624 0.78,-0.624 0.78,-0.624 0.78,-0.625 0.78,-0.624 0.781,-0.624 0.78,-0.624 0.78,-0.624 0.78,-0.624 0.78,-0.624 0.781,-0.625 0.78,-0.624 0.78,-0.624 0.78,-0.624 0.78,-0.624 0.781,-0.624 0.78,-0.625 0.78,-0.624 0.78,-0.624 0.78,-0.624 0.781,-0.624 0.78,-0.624 0.78,-0.625 0.78,-0.624 0.78,-0.624 0.781,-0.624 0.78,-0.624 0.78,-0.624 0.78,-0.624 0.78,-0.625 0.781,-0.624 0.78,-0.624 0.78,-0.624"
     stroke-width="5"
     stroke="#0000ff"
     fill="none" />
  <circle
     id="circle11"
     cx="40.939999"
     cy="465.99799"
     r="7.5"
     stroke-width="5"
     stroke="#0000ff"
     fill="#ffffff" />
  <circle
     id="circle12"
     cx="509.05899"
     cy="91.282997"
     r="7.5"
     stroke-width="5"
     stroke="#0000ff"
     fill="#ffffff" />
</svg>
