<?xml version="1.0" encoding="UTF-8" standalone="no"?>
<svg
   id="preview"
   width="600"
   height="600"
   viewBox="0 0 600 600"
   xunitlength="94"
   yunitlength="94"
   xmin="0"
   xmax="5"
   ymin="0"
   ymax="5"
   ox="40"
   oy="40"
   version="1.1"
   sodipodi:docname="graph-all.svg"
   inkscape:version="1.3.2 (091e20ef0f, 2023-11-25)"
   xmlns:inkscape="http://www.inkscape.org/namespaces/inkscape"
   xmlns:sodipodi="http://sodipodi.sourceforge.net/DTD/sodipodi-0.dtd"
   xmlns="http://www.w3.org/2000/svg"
   xmlns:svg="http://www.w3.org/2000/svg">
  <sodipodi:namedview
     id="namedview12"
     pagecolor="#ffffff"
     bordercolor="#000000"
     borderopacity="0.25"
     inkscape:showpageshadow="2"
     inkscape:pageopacity="0.0"
     inkscape:pagecheckerboard="0"
     inkscape:deskcolor="#d1d1d1"
     showgrid="false"
     inkscape:zoom="0.69414316"
     inkscape:cx="226.89844"
     inkscape:cy="280.20157"
     inkscape:window-width="1600"
     inkscape:window-height="831"
     inkscape:window-x="0"
     inkscape:window-y="0"
     inkscape:window-maximized="1"
     inkscape:current-layer="preview" />
  <defs
     id="defs1">
    <style
       type="text/css"
       id="style1">@import url(&quot;http://cdnjs.cloudflare.com/ajax/libs/KaTeX/0.2.0/katex.min.css&quot;)</style>
  </defs>
  <path
     d="M 524.4 552.8 L 546 560 L 524.4 567.2 L 528 560 z"
     stroke-width="1"
     stroke="black"
     fill="black"
     id="path1" />
  <path
     d="M 32.8 75.6 L 40 54 L 47.2 75.6 L 40 72 z"
     stroke-width="1"
     stroke="black"
     fill="black"
     id="path2" />
  <path
     d="M 22,560 H 528 M 40,72 v 506"
     stroke-width="2"
     stroke="#000000"
     fill="none"
     id="path3"
     sodipodi:nodetypes="cccc" />
  <path
     d="m 29.958008,24.824203 h -1.326172 q 0.05469,-0.287109 0.05469,-0.546875 0,-0.628906 -0.328125,-1.011718 -0.464843,-0.533203 -1.544921,-0.533203 -1.408204,0 -2.132813,0.779296 -0.724609,0.765625 -1.107422,2.748047 l -0.36914,1.873047 h 4.060546 l -0.287109,1.462891 h -4.060547 l -2.707031,13.972656 q -0.478516,2.433594 -1.982422,3.677734 -1.503906,1.244141 -3.951172,1.244141 l 0.164063,-1.339844 q 1.435547,0 2.132812,-0.765625 0.72461,-0.820312 1.121094,-2.816406 l 2.707031,-13.972656 h -2.40625 l 0.28711,-1.462891 h 2.40625 l 0.355468,-1.818359 q 0.478516,-2.447266 1.982422,-3.677735 1.503906,-1.24414 3.951172,-1.24414 0.916016,0 1.791016,0.164062 0.888672,0.164063 1.736328,0.50586 z m 2.84375,22.203125 q -3.035156,-1.490234 -4.101563,-4.716796 -1.066406,-3.240235 -0.123047,-8.09375 0.94336,-4.867188 3.267579,-8.09375 2.324218,-3.240235 5.933593,-4.730469 l -0.259765,1.339844 q -2.378907,1.449218 -3.814453,4.08789 -1.421875,2.625 -2.351563,7.396485 -0.929687,4.757812 -0.533203,7.396484 0.410156,2.625 2.242187,4.074219 z M 39.077148,42.666 h -1.708984 l 6.412109,-6.972656 -3.226562,-6.097656 h -1.791016 l 0.273438,-1.462891 h 3.691406 l 3.021484,5.660156 5.208985,-5.660156 h 1.708984 l -6.289062,6.835938 3.322265,6.248047 h 1.900391 L 51.327148,42.666 h -3.814453 l -3.089843,-5.796875 z m 13.507813,4.361328 0.259766,-1.339843 q 2.378906,-1.449219 3.814453,-4.074219 1.435547,-2.638672 2.365234,-7.396484 0.929688,-4.771485 0.519531,-7.396485 -0.410156,-2.638672 -2.242187,-4.08789 l 0.259765,-1.339844 q 3.048829,1.490234 4.115235,4.730469 1.066406,3.226562 0.123047,8.09375 -0.94336,4.853515 -3.267578,8.09375 -2.324219,3.226562 -5.947266,4.716796 z"
     id="null"
     style="font-style:italic;font-size:28px;font-family:KaTeX_Main, serif;text-anchor:middle;stroke-width:0px"
     aria-label="f(x)" />
  <path
     d="m 559.12402,569.33301 h -1.70898 l 6.41211,-6.97266 -3.22656,-6.09765 h -1.79102 l 0.27344,-1.4629 h 3.6914 l 3.02149,5.66016 5.20898,-5.66016 h 1.70899 l -6.28907,6.83594 3.32227,6.24805 h 1.90039 l -0.27344,1.44922 h -3.81445 l -3.08984,-5.79688 z"
     id="text3"
     style="font-style:italic;font-size:28px;font-family:KaTeX_Main, serif;stroke-width:0px"
     aria-label="x" />
  <path
     id="path4"
     d="M40.94,465.686 41.408,465.530 41.876,465.374 42.345,465.218 42.813,465.062 43.282,464.905 43.750,464.749 44.219,464.593 44.687,464.437 45.155,464.281 45.624,464.125 46.092,463.969 46.561,463.812 47.029,463.656 47.498,463.500 47.966,463.344 48.434,463.188 48.903,463.032 49.371,462.876 49.840,462.719 50.308,462.563 50.777,462.407 51.245,462.251 51.713,462.095 52.182,461.939 52.650,461.783 53.119,461.626 53.587,461.470 54.056,461.314 54.524,461.158 54.992,461.002 55.461,460.846 55.929,460.690 56.398,460.533 56.866,460.377 57.335,460.221 57.803,460.065 58.272,459.909 58.740,459.753 59.208,459.597 59.677,459.440 60.145,459.284 60.614,459.128 61.082,458.972 61.551,458.816 62.019,458.660 62.487,458.504 62.956,458.347 63.424,458.191 63.893,458.035 64.361,457.879 64.830,457.723 65.298,457.567 65.766,457.411 66.235,457.254 66.703,457.098 67.172,456.942 67.640,456.786 68.109,456.630 68.577,456.474 69.045,456.318 69.514,456.161 69.982,456.005 70.451,455.849 70.919,455.693 71.388,455.537 71.856,455.381 72.325,455.224 72.793,455.068 73.261,454.912 73.730,454.756 74.198,454.600 74.667,454.444 75.135,454.288 75.604,454.131 76.072,453.975 76.540,453.819 77.009,453.663 77.477,453.507 77.946,453.351 78.414,453.195 78.883,453.038 79.351,452.882 79.819,452.726 80.288,452.570 80.756,452.414 81.225,452.258 81.693,452.102 82.162,451.945 82.630,451.789 83.098,451.633 83.567,451.477 84.035,451.321 84.504,451.165 84.972,451.009 85.441,450.852 85.909,450.696 86.377,450.540 86.846,450.384 87.314,450.228 87.783,450.072 88.251,449.916 88.720,449.759 89.188,449.603 89.657,449.447 90.125,449.291 90.593,449.135 91.062,448.979 91.530,448.823 91.999,448.666 92.467,448.510 92.936,448.354 93.404,448.198 93.872,448.042 94.341,447.886 94.809,447.730 95.278,447.573 95.746,447.417 96.215,447.261 96.683,447.105 97.151,446.949 97.620,446.793 98.088,446.637 98.557,446.480 99.025,446.324 99.494,446.168 99.962,446.012 100.430,445.856 100.899,445.700 101.367,445.544 101.836,445.387 102.304,445.231 102.773,445.075 103.241,444.919 103.710,444.763 104.178,444.607 104.646,444.451 105.115,444.294 105.583,444.138 106.052,443.982 106.520,443.826 106.989,443.670 107.457,443.514 107.925,443.358 108.394,443.201 108.862,443.045 109.331,442.889 109.799,442.733 110.268,442.577 110.736,442.421 111.204,442.265 111.673,442.108 112.141,441.952 112.610,441.796 113.078,441.640 113.547,441.484 114.015,441.328 114.483,441.172 114.952,441.015 115.420,440.859 115.889,440.703 116.357,440.547 116.826,440.391 117.294,440.235 117.762,440.079 118.231,439.922 118.699,439.766 119.168,439.610 119.636,439.454 120.105,439.298 120.573,439.142 121.042,438.985 121.510,438.829 121.978,438.673 122.447,438.517 122.915,438.361 123.384,438.205 123.852,438.049 124.321,437.892 124.789,437.736 125.257,437.580 125.726,437.424 126.194,437.268 126.663,437.112 127.131,436.956 127.600,436.799 128.068,436.643 128.536,436.487 129.005,436.331 129.473,436.175 129.942,436.019 130.410,435.863 130.879,435.706 131.347,435.550 131.815,435.394 132.284,435.238 132.752,435.082 133.221,434.926 133.689,434.770 134.158,434.613 134.626,434.457 135.095,434.301 135.563,434.145 136.031,433.989 136.500,433.833 136.968,433.677 137.437,433.520 137.905,433.364 138.374,433.208 138.842,433.052 139.310,432.896 139.779,432.740 140.247,432.584 140.716,432.427 141.184,432.271 141.653,432.115 142.121,431.959 142.589,431.803 143.058,431.647 143.526,431.491 143.995,431.334 144.463,431.178 144.932,431.022 145.400,430.866 145.868,430.710 146.337,430.554 146.805,430.398 147.274,430.241 147.742,430.085 148.211,429.929 148.679,429.773 149.147,429.617 149.616,429.461 150.084,429.305 150.553,429.148 151.021,428.992 151.490,428.836 151.958,428.680 152.427,428.524 152.895,428.368 153.363,428.212 153.832,428.055 154.300,427.899 154.769,427.743 155.237,427.587 155.706,427.431 156.174,427.275 156.642,427.119 157.111,426.962 157.579,426.806 158.048,426.650 158.516,426.494 158.985,426.338 159.453,426.182 159.921,426.026 160.390,425.869 160.858,425.713 161.327,425.557 161.795,425.401 162.264,425.245 162.732,425.089 163.200,424.933 163.669,424.776 164.137,424.620 164.606,424.464 165.074,424.308 165.543,424.152 166.011,423.996 166.480,423.839 166.948,423.683 167.416,423.527 167.885,423.371 168.353,423.215 168.822,423.059 169.290,422.903 169.759,422.746 170.227,422.590 170.695,422.434 171.164,422.278 171.632,422.122 172.101,421.966 172.569,421.810 173.038,421.653 173.506,421.497 173.974,421.341 174.443,421.185 174.911,421.029 175.380,420.873 175.848,420.717 176.317,420.560 176.785,420.404 177.253,420.248 177.722,420.092 178.190,419.936 178.659,419.780 179.127,419.624 179.596,419.467 180.064,419.311 180.532,419.155 181.001,418.999 181.469,418.843 181.938,418.687 182.406,418.531 182.875,418.374 183.343,418.218 183.812,418.062 184.280,417.906 184.748,417.750 185.217,417.594 185.685,417.438 186.154,417.281 186.622,417.125 187.091,416.969 187.559,416.813 188.027,416.657 188.496,416.501 188.964,416.345 189.433,416.188 189.901,416.032 190.370,415.876 190.838,415.720 191.306,415.564 191.775,415.408 192.243,415.252 192.712,415.095 193.180,414.939 193.649,414.783 194.117,414.627 194.585,414.471 195.054,414.315 195.522,414.159 195.991,414.002 196.459,413.846 196.928,413.690 197.396,413.534 197.865,413.378 198.333,413.222 198.801,413.066 199.270,412.909 199.738,412.753 200.207,412.597 200.675,412.441 201.144,412.285 201.612,412.129 202.080,411.973 202.549,411.816 203.017,411.660 203.486,411.504 203.954,411.348 204.423,411.192 204.891,411.036 205.359,410.880 205.828,410.723 206.296,410.567 206.765,410.411 207.233,410.255 207.702,410.099 208.170,409.943 208.638,409.787 209.107,409.630 209.575,409.474 210.044,409.318 210.512,409.162 210.981,409.006 211.449,408.850 211.917,408.694 212.386,408.537 212.854,408.381 213.323,408.225 213.791,408.069 214.260,407.913 214.728,407.757 215.197,407.600 215.665,407.444 216.133,407.288 216.602,407.132 217.070,406.976 217.539,406.820 218.007,406.664 218.476,406.507 218.944,406.351 219.412,406.195 219.881,406.039 220.349,405.883 220.818,405.727 221.286,405.571 221.755,405.414 222.223,405.258 222.691,405.102 223.160,404.946 223.628,404.790 224.097,404.634 224.565,404.478 225.034,404.321 225.502,404.165 225.970,404.009 226.439,403.853 226.907,403.697 227.376,403.541 227.844,403.385 228.313,403.228 228.781,403.072 229.250,402.916 229.718,402.760 230.186,402.604 230.655,402.448 231.123,402.292 231.592,402.135 232.060,401.979 232.529,401.823 232.997,401.667 233.465,401.511 233.934,401.355 234.402,401.199 234.871,401.042 235.339,400.886 235.808,400.730 236.276,400.574 236.744,400.418 237.213,400.262 237.681,400.106 238.150,399.949 238.618,399.793 239.087,399.637 239.555,399.481 240.023,399.325 240.492,399.169 240.960,399.013 241.429,398.856 241.897,398.700 242.366,398.544 242.834,398.388 243.302,398.232 243.771,398.076 244.239,397.920 244.708,397.763 245.176,397.607 245.645,397.451 246.113,397.295 246.582,397.139 247.050,396.983 247.518,396.827 247.987,396.670 248.455,396.514 248.924,396.358 249.392,396.202 249.861,396.046 250.329,395.890 250.797,395.734 251.266,395.577 251.734,395.421 252.203,395.265 252.671,395.109 253.140,394.953 253.608,394.797 254.076,394.641 254.545,394.484 255.013,394.328 255.482,394.172 255.950,394.016 256.419,393.860 256.887,393.704 257.355,393.548 257.824,393.391 258.292,393.235 258.761,393.079 259.229,392.923 259.698,392.767 260.166,392.611 260.635,392.454 261.103,392.298 261.571,392.142 262.040,391.986 262.508,391.830 262.977,391.674 263.445,391.518 263.914,391.361 264.382,391.205 264.850,391.049 265.319,390.893 265.787,390.737 266.256,390.581 266.724,390.425 267.193,390.268 267.661,390.112 268.129,389.956 268.598,389.800 269.066,389.644 269.535,389.488 270.003,389.332 270.472,389.175 270.940,389.019 271.408,388.863 271.877,388.707 272.345,388.551 272.814,388.395 273.282,388.239 273.751,388.082 274.219,387.926 274.687,387.770 275.156,387.614 275.624,387.458 276.093,387.302 276.561,387.146 277.030,386.989 277.498,386.833 277.967,386.677 278.435,386.521 278.903,386.365 279.372,386.209 279.840,386.053 280.309,385.896 280.777,385.740 281.246,385.584 281.714,385.428 282.182,385.272 282.651,385.116 283.119,384.960 283.588,384.803 284.056,384.647 284.525,384.491 284.993,384.335 285.461,384.179 285.930,384.023 286.398,383.867 286.867,383.710 287.335,383.554 287.804,383.398 288.272,383.242 288.740,383.086 289.209,382.930 289.677,382.774 290.146,382.617 290.614,382.461 291.083,382.305 291.551,382.149 292.020,381.993 292.488,381.837 292.956,381.681 293.425,381.524 293.893,381.368 294.362,381.212 294.830,381.056 295.299,380.900 295.767,380.744 296.235,380.588 296.704,380.431 297.172,380.275 297.641,380.119 298.109,379.963 298.578,379.807 299.046,379.651 299.514,379.495 299.983,379.338 300.451,379.182 300.920,379.026 301.388,378.870 301.857,378.714 302.325,378.558 302.793,378.402 303.262,378.245 303.730,378.089 304.199,377.933 304.667,377.777 305.136,377.621 305.604,377.465 306.073,377.308 306.541,377.152 307.009,376.996 307.478,376.840 307.946,376.684 308.415,376.528 308.883,376.372 309.352,376.215 309.820,376.059 310.288,375.903 310.757,375.747 311.225,375.591 311.694,375.435 312.162,375.279 312.631,375.122 313.099,374.966 313.567,374.810 314.036,374.654 314.504,374.498 314.973,374.342 315.441,374.186 315.910,374.029 316.378,373.873 316.846,373.717 317.315,373.561 317.783,373.405 318.252,373.249 318.720,373.093 319.189,372.936 319.657,372.780 320.125,372.624 320.594,372.468 321.062,372.312 321.531,372.156 321.999,372.000 "
     stroke-width="5"
     stroke="blue"
     fill="none" />
  <circle
     id="circle4"
     cx="321.999"
     cy="372.000"
     r="7.5"
     stroke-width="5"
     stroke="blue"
     fill="white" />
  <path
     id="path5"
     d="M322,372 322.156,371.843 322.313,371.686 322.469,371.530 322.626,371.373 322.783,371.216 322.939,371.060 323.096,370.903 323.253,370.746 323.409,370.590 323.566,370.433 323.723,370.276 323.879,370.120 324.036,369.963 324.193,369.806 324.349,369.650 324.506,369.493 324.663,369.336 324.819,369.180 324.976,369.023 325.133,368.866 325.289,368.710 325.446,368.553 325.603,368.396 325.759,368.240 325.916,368.083 326.073,367.926 326.229,367.770 326.386,367.613 326.543,367.456 326.699,367.300 326.856,367.143 327.013,366.986 327.169,366.830 327.326,366.673 327.483,366.516 327.639,366.360 327.796,366.203 327.953,366.046 328.109,365.890 328.266,365.733 328.423,365.576 328.579,365.420 328.736,365.263 328.893,365.106 329.049,364.950 329.206,364.793 329.363,364.636 329.519,364.480 329.676,364.323 329.833,364.166 329.989,364.010 330.146,363.853 330.303,363.696 330.459,363.540 330.616,363.383 330.773,363.226 330.929,363.070 331.086,362.913 331.243,362.756 331.399,362.600 331.556,362.443 331.713,362.286 331.869,362.130 332.026,361.973 332.183,361.816 332.339,361.660 332.496,361.503 332.653,361.346 332.809,361.190 332.966,361.033 333.123,360.876 333.279,360.720 333.436,360.563 333.593,360.406 333.749,360.250 333.906,360.093 334.063,359.936 334.219,359.780 334.376,359.623 334.533,359.466 334.689,359.310 334.846,359.153 335.003,358.996 335.159,358.840 335.316,358.683 335.473,358.526 335.629,358.370 335.786,358.213 335.943,358.056 336.099,357.900 336.256,357.743 336.413,357.586 336.569,357.430 336.726,357.273 336.883,357.116 337.039,356.960 337.196,356.803 337.353,356.646 337.509,356.490 337.666,356.333 337.823,356.176 337.979,356.020 338.136,355.863 338.293,355.706 338.449,355.550 338.606,355.393 338.763,355.236 338.919,355.080 339.076,354.923 339.233,354.766 339.389,354.610 339.546,354.453 339.703,354.296 339.859,354.140 340.016,353.983 340.173,353.826 340.329,353.670 340.486,353.513 340.643,353.356 340.799,353.200 340.956,353.043 341.113,352.886 341.269,352.730 341.426,352.573 341.583,352.416 341.739,352.260 341.896,352.103 342.053,351.946 342.209,351.790 342.366,351.633 342.523,351.476 342.679,351.320 342.836,351.163 342.993,351.006 343.149,350.850 343.306,350.693 343.463,350.536 343.619,350.380 343.776,350.223 343.933,350.066 344.089,349.910 344.246,349.753 344.403,349.596 344.559,349.440 344.716,349.283 344.873,349.126 345.029,348.970 345.186,348.813 345.343,348.656 345.499,348.500 345.656,348.343 345.813,348.186 345.969,348.030 346.126,347.873 346.283,347.716 346.439,347.560 346.596,347.403 346.753,347.246 346.909,347.090 347.066,346.933 347.223,346.776 347.379,346.620 347.536,346.463 347.693,346.306 347.849,346.150 348.006,345.993 348.163,345.836 348.319,345.680 348.476,345.523 348.633,345.366 348.789,345.210 348.946,345.053 349.103,344.896 349.259,344.740 349.416,344.583 349.573,344.426 349.729,344.270 349.886,344.113 350.043,343.956 350.199,343.800 350.356,343.643 350.513,343.486 350.669,343.330 350.826,343.173 350.983,343.016 351.139,342.860 351.296,342.703 351.453,342.546 351.609,342.390 351.766,342.233 351.923,342.076 352.079,341.920 352.236,341.763 352.393,341.606 352.549,341.450 352.706,341.293 352.863,341.136 353.019,340.980 353.176,340.823 353.333,340.666 353.489,340.510 353.646,340.353 353.803,340.196 353.959,340.040 354.116,339.883 354.273,339.726 354.429,339.570 354.586,339.413 354.743,339.256 354.899,339.100 355.056,338.943 355.213,338.786 355.369,338.630 355.526,338.473 355.683,338.316 355.839,338.160 355.996,338.003 356.153,337.846 356.309,337.690 356.466,337.533 356.623,337.376 356.779,337.220 356.936,337.063 357.093,336.906 357.249,336.750 357.406,336.593 357.563,336.436 357.719,336.280 357.876,336.123 358.033,335.966 358.189,335.810 358.346,335.653 358.503,335.496 358.659,335.340 358.816,335.183 358.973,335.026 359.129,334.870 359.286,334.713 359.443,334.556 359.599,334.400 359.756,334.243 359.913,334.086 360.069,333.930 360.226,333.773 360.383,333.616 360.539,333.460 360.696,333.303 360.853,333.146 361.009,332.990 361.166,332.833 361.323,332.676 361.479,332.520 361.636,332.363 361.793,332.206 361.949,332.050 362.106,331.893 362.263,331.736 362.419,331.580 362.576,331.423 362.733,331.266 362.889,331.110 363.046,330.953 363.203,330.796 363.359,330.640 363.516,330.483 363.673,330.326 363.829,330.170 363.986,330.013 364.143,329.856 364.299,329.700 364.456,329.543 364.613,329.386 364.769,329.230 364.926,329.073 365.083,328.916 365.239,328.760 365.396,328.603 365.553,328.446 365.709,328.290 365.866,328.133 366.023,327.976 366.179,327.820 366.336,327.663 366.493,327.506 366.649,327.350 366.806,327.193 366.963,327.036 367.119,326.880 367.276,326.723 367.433,326.566 367.589,326.410 367.746,326.253 367.903,326.096 368.059,325.940 368.216,325.783 368.373,325.626 368.529,325.470 368.686,325.313 368.843,325.156 368.999,325.000 369.156,324.843 369.313,324.686 369.469,324.530 369.626,324.373 369.783,324.216 369.939,324.060 370.096,323.903 370.253,323.746 370.409,323.590 370.566,323.433 370.723,323.276 370.879,323.120 371.036,322.963 371.193,322.806 371.349,322.650 371.506,322.493 371.663,322.336 371.819,322.180 371.976,322.023 372.133,321.866 372.289,321.710 372.446,321.553 372.603,321.396 372.759,321.240 372.916,321.083 373.073,320.926 373.229,320.770 373.386,320.613 373.543,320.456 373.699,320.300 373.856,320.143 374.013,319.986 374.169,319.830 374.326,319.673 374.483,319.516 374.639,319.360 374.796,319.203 374.953,319.046 375.109,318.890 375.266,318.733 375.423,318.576 375.579,318.420 375.736,318.263 375.893,318.106 376.049,317.950 376.206,317.793 376.363,317.636 376.519,317.480 376.676,317.323 376.833,317.166 376.989,317.010 377.146,316.853 377.303,316.696 377.459,316.540 377.616,316.383 377.773,316.226 377.929,316.070 378.086,315.913 378.243,315.756 378.399,315.600 378.556,315.443 378.713,315.286 378.869,315.130 379.026,314.973 379.183,314.816 379.339,314.660 379.496,314.503 379.653,314.346 379.809,314.190 379.966,314.033 380.123,313.876 380.279,313.720 380.436,313.563 380.593,313.406 380.749,313.250 380.906,313.093 381.063,312.936 381.219,312.780 381.376,312.623 381.533,312.466 381.689,312.310 381.846,312.153 382.003,311.996 382.159,311.840 382.316,311.683 382.473,311.526 382.629,311.370 382.786,311.213 382.943,311.056 383.099,310.900 383.256,310.743 383.413,310.586 383.569,310.430 383.726,310.273 383.883,310.116 384.039,309.960 384.196,309.803 384.353,309.646 384.509,309.490 384.666,309.333 384.823,309.176 384.979,309.020 385.136,308.863 385.293,308.706 385.449,308.550 385.606,308.393 385.763,308.236 385.919,308.080 386.076,307.923 386.233,307.766 386.389,307.610 386.546,307.453 386.703,307.296 386.859,307.140 387.016,306.983 387.173,306.826 387.329,306.670 387.486,306.513 387.643,306.356 387.799,306.200 387.956,306.043 388.113,305.886 388.269,305.730 388.426,305.573 388.583,305.416 388.739,305.260 388.896,305.103 389.053,304.946 389.209,304.790 389.366,304.633 389.523,304.476 389.679,304.320 389.836,304.163 389.993,304.006 390.149,303.850 390.306,303.693 390.463,303.536 390.619,303.380 390.776,303.223 390.933,303.066 391.089,302.910 391.246,302.753 391.403,302.596 391.559,302.440 391.716,302.283 391.873,302.126 392.029,301.970 392.186,301.813 392.343,301.656 392.499,301.500 392.656,301.343 392.813,301.186 392.969,301.030 393.126,300.873 393.283,300.716 393.439,300.560 393.596,300.403 393.753,300.246 393.909,300.090 394.066,299.933 394.223,299.776 394.379,299.620 394.536,299.463 394.693,299.306 394.849,299.150 395.006,298.993 395.163,298.836 395.319,298.680 395.476,298.523 395.633,298.366 395.789,298.210 395.946,298.053 396.103,297.896 396.259,297.740 396.416,297.583 396.573,297.426 396.729,297.270 396.886,297.113 397.043,296.956 397.199,296.800 397.356,296.643 397.513,296.486 397.669,296.330 397.826,296.173 397.983,296.016 398.139,295.860 398.296,295.703 398.453,295.546 398.609,295.390 398.766,295.233 398.923,295.076 399.079,294.920 399.236,294.763 399.393,294.606 399.549,294.450 399.706,294.293 399.863,294.136 400.019,293.980 400.176,293.823 400.333,293.666 400.489,293.510 400.646,293.353 400.803,293.196 400.959,293.040 401.116,292.883 401.273,292.726 401.429,292.570 401.586,292.413 401.743,292.256 401.899,292.100 402.056,291.943 402.213,291.786 402.369,291.630 402.526,291.473 402.683,291.316 402.839,291.160 402.996,291.003 403.153,290.846 403.309,290.690 403.466,290.533 403.623,290.376 403.779,290.220 403.936,290.063 404.093,289.906 404.249,289.750 404.406,289.593 404.563,289.436 404.719,289.280 404.876,289.123 405.033,288.966 405.189,288.810 405.346,288.653 405.503,288.496 405.659,288.340 405.816,288.183 405.973,288.026 406.129,287.870 406.286,287.713 406.443,287.556 406.599,287.400 406.756,287.243 406.913,287.086 407.069,286.930 407.226,286.773 407.383,286.616 407.539,286.460 407.696,286.303 407.853,286.146 408.009,285.990 408.166,285.833 408.323,285.676 408.479,285.520 408.636,285.363 408.793,285.206 408.949,285.050 409.106,284.893 409.263,284.736 409.419,284.580 409.576,284.423 409.733,284.266 409.889,284.110 410.046,283.953 410.203,283.796 410.359,283.640 410.516,283.483 410.673,283.326 410.829,283.170 410.986,283.013 411.143,282.856 411.299,282.700 411.456,282.543 411.613,282.386 411.769,282.230 411.926,282.073 412.083,281.916 412.239,281.760 412.396,281.603 412.553,281.446 412.709,281.290 412.866,281.133 413.023,280.976 413.179,280.820 413.336,280.663 413.493,280.506 413.649,280.350 413.806,280.193 413.963,280.036 414.119,279.880 414.276,279.723 414.433,279.566 414.589,279.410 414.746,279.253 414.903,279.096 415.059,278.940 415.216,278.783 415.373,278.626 415.529,278.470 415.686,278.313 415.843,278.156 415.999,278.000 "
     stroke-width="5"
     stroke="blue"
     fill="none" />
  <circle
     id="circle5"
     cx="322"
     cy="372"
     r="7.5"
     stroke-width="5"
     stroke="blue"
     fill="white" />
  <circle
     id="circle6"
     cx="415.999"
     cy="278.000"
     r="7.5"
     stroke-width="5"
     stroke="blue"
     fill="white" />
  <path
     id="path6"
     d="M416,278 416.155,277.689 416.310,277.379 416.465,277.069 416.620,276.759 416.775,276.449 416.930,276.138 417.085,275.828 417.240,275.518 417.395,275.208 417.550,274.898 417.706,274.587 417.861,274.277 418.016,273.967 418.171,273.657 418.326,273.347 418.481,273.036 418.636,272.726 418.791,272.416 418.946,272.106 419.101,271.796 419.257,271.485 419.412,271.175 419.567,270.865 419.722,270.555 419.877,270.245 420.032,269.934 420.187,269.624 420.342,269.314 420.497,269.004 420.652,268.694 420.808,268.383 420.963,268.073 421.118,267.763 421.273,267.453 421.428,267.143 421.583,266.832 421.738,266.522 421.893,266.212 422.048,265.902 422.203,265.592 422.359,265.281 422.514,264.971 422.669,264.661 422.824,264.351 422.979,264.041 423.134,263.730 423.289,263.420 423.444,263.110 423.599,262.800 423.754,262.490 423.910,262.179 424.065,261.869 424.220,261.559 424.375,261.249 424.530,260.939 424.685,260.628 424.840,260.318 424.995,260.008 425.150,259.698 425.305,259.388 425.461,259.077 425.616,258.767 425.771,258.457 425.926,258.147 426.081,257.837 426.236,257.526 426.391,257.216 426.546,256.906 426.701,256.596 426.856,256.286 427.012,255.975 427.167,255.665 427.322,255.355 427.477,255.045 427.632,254.735 427.787,254.424 427.942,254.114 428.097,253.804 428.252,253.494 428.407,253.184 428.563,252.873 428.718,252.563 428.873,252.253 429.028,251.943 429.183,251.633 429.338,251.322 429.493,251.012 429.648,250.702 429.803,250.392 429.958,250.082 430.114,249.771 430.269,249.461 430.424,249.151 430.579,248.841 430.734,248.531 430.889,248.220 431.044,247.910 431.199,247.600 431.354,247.290 431.509,246.980 431.665,246.669 431.820,246.359 431.975,246.049 432.130,245.739 432.285,245.429 432.440,245.118 432.595,244.808 432.750,244.498 432.905,244.188 433.060,243.878 433.216,243.567 433.371,243.257 433.526,242.947 433.681,242.637 433.836,242.327 433.991,242.016 434.146,241.706 434.301,241.396 434.456,241.086 434.611,240.776 434.767,240.465 434.922,240.155 435.077,239.845 435.232,239.535 435.387,239.225 435.542,238.914 435.697,238.604 435.852,238.294 436.007,237.984 436.162,237.674 436.318,237.363 436.473,237.053 436.628,236.743 436.783,236.433 436.938,236.123 437.093,235.812 437.248,235.502 437.403,235.192 437.558,234.882 437.713,234.572 437.869,234.261 438.024,233.951 438.179,233.641 438.334,233.331 438.489,233.021 438.644,232.710 438.799,232.400 438.954,232.090 439.109,231.780 439.264,231.470 439.420,231.159 439.575,230.849 439.730,230.539 439.885,230.229 440.040,229.919 440.195,229.608 440.350,229.298 440.505,228.988 440.660,228.678 440.815,228.368 440.971,228.057 441.126,227.747 441.281,227.437 441.436,227.127 441.591,226.817 441.746,226.506 441.901,226.196 442.056,225.886 442.211,225.576 442.366,225.266 442.522,224.955 442.677,224.645 442.832,224.335 442.987,224.025 443.142,223.715 443.297,223.404 443.452,223.094 443.607,222.784 443.762,222.474 443.917,222.164 444.073,221.853 444.228,221.543 444.383,221.233 444.538,220.923 444.693,220.613 444.848,220.302 445.003,219.992 445.158,219.682 445.313,219.372 445.468,219.062 445.624,218.751 445.779,218.441 445.934,218.131 446.089,217.821 446.244,217.511 446.399,217.200 446.554,216.890 446.709,216.580 446.864,216.270 447.019,215.960 447.175,215.649 447.330,215.339 447.485,215.029 447.640,214.719 447.795,214.409 447.950,214.098 448.105,213.788 448.260,213.478 448.415,213.168 448.570,212.858 448.726,212.547 448.881,212.237 449.036,211.927 449.191,211.617 449.346,211.307 449.501,210.996 449.656,210.686 449.811,210.376 449.966,210.066 450.121,209.756 450.277,209.445 450.432,209.135 450.587,208.825 450.742,208.515 450.897,208.205 451.052,207.894 451.207,207.584 451.362,207.274 451.517,206.964 451.672,206.654 451.828,206.343 451.983,206.033 452.138,205.723 452.293,205.413 452.448,205.103 452.603,204.792 452.758,204.482 452.913,204.172 453.068,203.862 453.223,203.552 453.379,203.241 453.534,202.931 453.689,202.621 453.844,202.311 453.999,202.001 454.154,201.690 454.309,201.380 454.464,201.070 454.619,200.760 454.774,200.450 454.930,200.139 455.085,199.829 455.240,199.519 455.395,199.209 455.550,198.899 455.705,198.588 455.860,198.278 456.015,197.968 456.170,197.658 456.325,197.348 456.481,197.037 456.636,196.727 456.791,196.417 456.946,196.107 457.101,195.797 457.256,195.486 457.411,195.176 457.566,194.866 457.721,194.556 457.876,194.246 458.032,193.935 458.187,193.625 458.342,193.315 458.497,193.005 458.652,192.695 458.807,192.384 458.962,192.074 459.117,191.764 459.272,191.454 459.427,191.144 459.583,190.833 459.738,190.523 459.893,190.213 460.048,189.903 460.203,189.593 460.358,189.282 460.513,188.972 460.668,188.662 460.823,188.352 460.978,188.042 461.134,187.731 461.289,187.421 461.444,187.111 461.599,186.801 461.754,186.491 461.909,186.180 462.064,185.870 462.219,185.560 462.374,185.250 462.529,184.940 462.685,184.629 462.840,184.319 462.995,184.009 463.150,183.699 463.305,183.389 463.460,183.078 463.615,182.768 463.770,182.458 463.925,182.148 464.080,181.838 464.236,181.527 464.391,181.217 464.546,180.907 464.701,180.597 464.856,180.287 465.011,179.976 465.166,179.666 465.321,179.356 465.476,179.046 465.631,178.736 465.787,178.425 465.942,178.115 466.097,177.805 466.252,177.495 466.407,177.185 466.562,176.874 466.717,176.564 466.872,176.254 467.027,175.944 467.182,175.634 467.338,175.323 467.493,175.013 467.648,174.703 467.803,174.393 467.958,174.083 468.113,173.772 468.268,173.462 468.423,173.152 468.578,172.842 468.733,172.532 468.889,172.221 469.044,171.911 469.199,171.601 469.354,171.291 469.509,170.981 469.664,170.670 469.819,170.360 469.974,170.050 470.129,169.740 470.284,169.430 470.440,169.119 470.595,168.809 470.750,168.499 470.905,168.189 471.060,167.879 471.215,167.568 471.370,167.258 471.525,166.948 471.680,166.638 471.835,166.328 471.991,166.017 472.146,165.707 472.301,165.397 472.456,165.087 472.611,164.777 472.766,164.466 472.921,164.156 473.076,163.846 473.231,163.536 473.386,163.226 473.542,162.915 473.697,162.605 473.852,162.295 474.007,161.985 474.162,161.675 474.317,161.364 474.472,161.054 474.627,160.744 474.782,160.434 474.937,160.124 475.093,159.813 475.248,159.503 475.403,159.193 475.558,158.883 475.713,158.573 475.868,158.262 476.023,157.952 476.178,157.642 476.333,157.332 476.488,157.022 476.644,156.711 476.799,156.401 476.954,156.091 477.109,155.781 477.264,155.471 477.419,155.160 477.574,154.850 477.729,154.540 477.884,154.230 478.039,153.920 478.195,153.609 478.350,153.299 478.505,152.989 478.660,152.679 478.815,152.369 478.970,152.058 479.125,151.748 479.280,151.438 479.435,151.128 479.590,150.818 479.746,150.507 479.901,150.197 480.056,149.887 480.211,149.577 480.366,149.267 480.521,148.956 480.676,148.646 480.831,148.336 480.986,148.026 481.141,147.716 481.297,147.405 481.452,147.095 481.607,146.785 481.762,146.475 481.917,146.165 482.072,145.854 482.227,145.544 482.382,145.234 482.537,144.924 482.692,144.614 482.848,144.303 483.003,143.993 483.158,143.683 483.313,143.373 483.468,143.063 483.623,142.752 483.778,142.442 483.933,142.132 484.088,141.822 484.243,141.512 484.399,141.201 484.554,140.891 484.709,140.581 484.864,140.271 485.019,139.961 485.174,139.650 485.329,139.340 485.484,139.030 485.639,138.720 485.794,138.410 485.950,138.099 486.105,137.789 486.260,137.479 486.415,137.169 486.570,136.859 486.725,136.548 486.880,136.238 487.035,135.928 487.190,135.618 487.345,135.308 487.501,134.997 487.656,134.687 487.811,134.377 487.966,134.067 488.121,133.757 488.276,133.446 488.431,133.136 488.586,132.826 488.741,132.516 488.896,132.206 489.052,131.895 489.207,131.585 489.362,131.275 489.517,130.965 489.672,130.655 489.827,130.344 489.982,130.034 490.137,129.724 490.292,129.414 490.447,129.104 490.603,128.793 490.758,128.483 490.913,128.173 491.068,127.863 491.223,127.553 491.378,127.242 491.533,126.932 491.688,126.622 491.843,126.312 491.998,126.002 492.154,125.691 492.309,125.381 492.464,125.071 492.619,124.761 492.774,124.451 492.929,124.140 493.084,123.830 493.239,123.520 493.394,123.210 493.549,122.900 493.705,122.589 493.860,122.279 494.015,121.969 494.170,121.659 494.325,121.349 494.480,121.038 494.635,120.728 494.790,120.418 494.945,120.108 495.100,119.798 495.256,119.487 495.411,119.177 495.566,118.867 495.721,118.557 495.876,118.247 496.031,117.936 496.186,117.626 496.341,117.316 496.496,117.006 496.651,116.696 496.807,116.385 496.962,116.075 497.117,115.765 497.272,115.455 497.427,115.145 497.582,114.834 497.737,114.524 497.892,114.214 498.047,113.904 498.202,113.594 498.358,113.283 498.513,112.973 498.668,112.663 498.823,112.353 498.978,112.043 499.133,111.732 499.288,111.422 499.443,111.112 499.598,110.802 499.753,110.492 499.909,110.181 500.064,109.871 500.219,109.561 500.374,109.251 500.529,108.941 500.684,108.630 500.839,108.320 500.994,108.010 501.149,107.700 501.304,107.390 501.460,107.079 501.615,106.769 501.770,106.459 501.925,106.149 502.080,105.839 502.235,105.528 502.390,105.218 502.545,104.908 502.700,104.598 502.855,104.288 503.011,103.977 503.166,103.667 503.321,103.357 503.476,103.047 503.631,102.737 503.786,102.426 503.941,102.116 504.096,101.806 504.251,101.496 504.406,101.186 504.562,100.875 504.717,100.565 504.872,100.255 505.027,99.945 505.182,99.635 505.337,99.324 505.492,99.014 505.647,98.704 505.802,98.394 505.957,98.084 506.113,97.773 506.268,97.463 506.423,97.153 506.578,96.843 506.733,96.533 506.888,96.222 507.043,95.912 507.198,95.602 507.353,95.292 507.508,94.982 507.664,94.671 507.819,94.361 507.974,94.051 508.129,93.741 508.284,93.431 508.439,93.120 508.594,92.810 508.749,92.500 508.904,92.190 509.059,91.880 "
     stroke-width="5"
     stroke="blue"
     fill="none" />
  <circle
     id="circle7"
     cx="416"
     cy="278"
     r="7.5"
     stroke-width="5"
     stroke="blue"
     fill="white" />
  <path
     id="path8"
     d="M40.94,465.248 41.720,464.623 42.500,463.999 43.280,463.375 44.060,462.751 44.840,462.127 45.621,461.503 46.401,460.878 47.181,460.254 47.961,459.630 48.741,459.006 49.522,458.382 50.302,457.758 51.082,457.133 51.862,456.509 52.642,455.885 53.423,455.261 54.203,454.637 54.983,454.013 55.763,453.388 56.543,452.764 57.324,452.140 58.104,451.516 58.884,450.892 59.664,450.268 60.444,449.644 61.225,449.019 62.005,448.395 62.785,447.771 63.565,447.147 64.345,446.523 65.126,445.899 65.906,445.274 66.686,444.650 67.466,444.026 68.246,443.402 69.027,442.778 69.807,442.154 70.587,441.529 71.367,440.905 72.147,440.281 72.928,439.657 73.708,439.033 74.488,438.409 75.268,437.784 76.048,437.160 76.829,436.536 77.609,435.912 78.389,435.288 79.169,434.664 79.949,434.040 80.730,433.415 81.510,432.791 82.290,432.167 83.070,431.543 83.850,430.919 84.631,430.295 85.411,429.670 86.191,429.046 86.971,428.422 87.751,427.798 88.532,427.174 89.312,426.550 90.092,425.925 90.872,425.301 91.652,424.677 92.433,424.053 93.213,423.429 93.993,422.805 94.773,422.181 95.553,421.556 96.334,420.932 97.114,420.308 97.894,419.684 98.674,419.060 99.454,418.436 100.235,417.811 101.015,417.187 101.795,416.563 102.575,415.939 103.355,415.315 104.136,414.691 104.916,414.066 105.696,413.442 106.476,412.818 107.256,412.194 108.037,411.570 108.817,410.946 109.597,410.321 110.377,409.697 111.157,409.073 111.938,408.449 112.718,407.825 113.498,407.201 114.278,406.577 115.058,405.952 115.839,405.328 116.619,404.704 117.399,404.080 118.179,403.456 118.959,402.832 119.740,402.207 120.520,401.583 121.300,400.959 122.080,400.335 122.860,399.711 123.641,399.087 124.421,398.462 125.201,397.838 125.981,397.214 126.761,396.590 127.542,395.966 128.322,395.342 129.102,394.717 129.882,394.093 130.662,393.469 131.443,392.845 132.223,392.221 133.003,391.597 133.783,390.973 134.563,390.348 135.344,389.724 136.124,389.100 136.904,388.476 137.684,387.852 138.464,387.228 139.245,386.603 140.025,385.979 140.805,385.355 141.585,384.731 142.365,384.107 143.146,383.483 143.926,382.858 144.706,382.234 145.486,381.610 146.266,380.986 147.047,380.362 147.827,379.738 148.607,379.114 149.387,378.489 150.167,377.865 150.948,377.241 151.728,376.617 152.508,375.993 153.288,375.369 154.068,374.744 154.849,374.120 155.629,373.496 156.409,372.872 157.189,372.248 157.969,371.624 158.750,370.999 159.530,370.375 160.310,369.751 161.090,369.127 161.870,368.503 162.651,367.879 163.431,367.254 164.211,366.630 164.991,366.006 165.771,365.382 166.552,364.758 167.332,364.134 168.112,363.510 168.892,362.885 169.672,362.261 170.453,361.637 171.233,361.013 172.013,360.389 172.793,359.765 173.573,359.140 174.354,358.516 175.134,357.892 175.914,357.268 176.694,356.644 177.474,356.020 178.255,355.395 179.035,354.771 179.815,354.147 180.595,353.523 181.375,352.899 182.156,352.275 182.936,351.650 183.716,351.026 184.496,350.402 185.276,349.778 186.057,349.154 186.837,348.530 187.617,347.906 188.397,347.281 189.177,346.657 189.958,346.033 190.738,345.409 191.518,344.785 192.298,344.161 193.078,343.536 193.859,342.912 194.639,342.288 195.419,341.664 196.199,341.040 196.979,340.416 197.760,339.791 198.540,339.167 199.320,338.543 200.100,337.919 200.880,337.295 201.661,336.671 202.441,336.047 203.221,335.422 204.001,334.798 204.781,334.174 205.562,333.550 206.342,332.926 207.122,332.302 207.902,331.677 208.682,331.053 209.463,330.429 210.243,329.805 211.023,329.181 211.803,328.557 212.583,327.932 213.364,327.308 214.144,326.684 214.924,326.060 215.704,325.436 216.484,324.812 217.265,324.187 218.045,323.563 218.825,322.939 219.605,322.315 220.385,321.691 221.166,321.067 221.946,320.443 222.726,319.818 223.506,319.194 224.286,318.570 225.067,317.946 225.847,317.322 226.627,316.698 227.407,316.073 228.187,315.449 228.968,314.825 229.748,314.201 230.528,313.577 231.308,312.953 232.088,312.328 232.869,311.704 233.649,311.080 234.429,310.456 235.209,309.832 235.989,309.208 236.770,308.583 237.550,307.959 238.330,307.335 239.110,306.711 239.890,306.087 240.671,305.463 241.451,304.839 242.231,304.214 243.011,303.590 243.791,302.966 244.571,302.342 245.352,301.718 246.132,301.094 246.912,300.469 247.692,299.845 248.472,299.221 249.253,298.597 250.033,297.973 250.813,297.349 251.593,296.724 252.373,296.100 253.154,295.476 253.934,294.852 254.714,294.228 255.494,293.604 256.274,292.980 257.055,292.355 257.835,291.731 258.615,291.107 259.395,290.483 260.175,289.859 260.956,289.235 261.736,288.610 262.516,287.986 263.296,287.362 264.076,286.738 264.857,286.114 265.637,285.490 266.417,284.865 267.197,284.241 267.977,283.617 268.758,282.993 269.538,282.369 270.318,281.745 271.098,281.120 271.878,280.496 272.659,279.872 273.439,279.248 274.219,278.624 274.999,278.000 275.779,277.376 276.560,276.751 277.340,276.127 278.120,275.503 278.900,274.879 279.680,274.255 280.461,273.631 281.241,273.006 282.021,272.382 282.801,271.758 283.581,271.134 284.362,270.510 285.142,269.886 285.922,269.261 286.702,268.637 287.482,268.013 288.263,267.389 289.043,266.765 289.823,266.141 290.603,265.516 291.383,264.892 292.164,264.268 292.944,263.644 293.724,263.020 294.504,262.396 295.284,261.772 296.065,261.147 296.845,260.523 297.625,259.899 298.405,259.275 299.185,258.651 299.966,258.027 300.746,257.402 301.526,256.778 302.306,256.154 303.086,255.530 303.867,254.906 304.647,254.282 305.427,253.657 306.207,253.033 306.987,252.409 307.768,251.785 308.548,251.161 309.328,250.537 310.108,249.913 310.888,249.288 311.669,248.664 312.449,248.040 313.229,247.416 314.009,246.792 314.789,246.168 315.570,245.543 316.350,244.919 317.130,244.295 317.910,243.671 318.690,243.047 319.471,242.423 320.251,241.798 321.031,241.174 321.811,240.550 322.591,239.926 323.372,239.302 324.152,238.678 324.932,238.053 325.712,237.429 326.492,236.805 327.273,236.181 328.053,235.557 328.833,234.933 329.613,234.309 330.393,233.684 331.174,233.060 331.954,232.436 332.734,231.812 333.514,231.188 334.294,230.564 335.075,229.939 335.855,229.315 336.635,228.691 337.415,228.067 338.195,227.443 338.976,226.819 339.756,226.194 340.536,225.570 341.316,224.946 342.096,224.322 342.877,223.698 343.657,223.074 344.437,222.450 345.217,221.825 345.997,221.201 346.778,220.577 347.558,219.953 348.338,219.329 349.118,218.705 349.898,218.080 350.679,217.456 351.459,216.832 352.239,216.208 353.019,215.584 353.799,214.960 354.580,214.335 355.360,213.711 356.140,213.087 356.920,212.463 357.700,211.839 358.481,211.215 359.261,210.590 360.041,209.966 360.821,209.342 361.601,208.718 362.382,208.094 363.162,207.470 363.942,206.846 364.722,206.221 365.502,205.597 366.283,204.973 367.063,204.349 367.843,203.725 368.623,203.101 369.403,202.476 370.184,201.852 370.964,201.228 371.744,200.604 372.524,199.980 373.304,199.356 374.085,198.731 374.865,198.107 375.645,197.483 376.425,196.859 377.205,196.235 377.986,195.611 378.766,194.986 379.546,194.362 380.326,193.738 381.106,193.114 381.887,192.490 382.667,191.866 383.447,191.242 384.227,190.617 385.007,189.993 385.788,189.369 386.568,188.745 387.348,188.121 388.128,187.497 388.908,186.872 389.689,186.248 390.469,185.624 391.249,185.000 392.029,184.376 392.809,183.752 393.590,183.127 394.370,182.503 395.150,181.879 395.930,181.255 396.710,180.631 397.491,180.007 398.271,179.383 399.051,178.758 399.831,178.134 400.611,177.510 401.392,176.886 402.172,176.262 402.952,175.638 403.732,175.013 404.512,174.389 405.293,173.765 406.073,173.141 406.853,172.517 407.633,171.893 408.413,171.268 409.194,170.644 409.974,170.020 410.754,169.396 411.534,168.772 412.314,168.148 413.095,167.523 413.875,166.899 414.655,166.275 415.435,165.651 416.215,165.027 416.996,164.403 417.776,163.779 418.556,163.154 419.336,162.530 420.116,161.906 420.897,161.282 421.677,160.658 422.457,160.034 423.237,159.409 424.017,158.785 424.798,158.161 425.578,157.537 426.358,156.913 427.138,156.289 427.918,155.664 428.699,155.040 429.479,154.416 430.259,153.792 431.039,153.168 431.819,152.544 432.600,151.919 433.380,151.295 434.160,150.671 434.940,150.047 435.720,149.423 436.501,148.799 437.281,148.175 438.061,147.550 438.841,146.926 439.621,146.302 440.402,145.678 441.182,145.054 441.962,144.430 442.742,143.805 443.522,143.181 444.302,142.557 445.083,141.933 445.863,141.309 446.643,140.685 447.423,140.060 448.203,139.436 448.984,138.812 449.764,138.188 450.544,137.564 451.324,136.940 452.104,136.316 452.885,135.691 453.665,135.067 454.445,134.443 455.225,133.819 456.005,133.195 456.786,132.571 457.566,131.946 458.346,131.322 459.126,130.698 459.906,130.074 460.687,129.450 461.467,128.826 462.247,128.201 463.027,127.577 463.807,126.953 464.588,126.329 465.368,125.705 466.148,125.081 466.928,124.456 467.708,123.832 468.489,123.208 469.269,122.584 470.049,121.960 470.829,121.336 471.609,120.712 472.390,120.087 473.170,119.463 473.950,118.839 474.730,118.215 475.510,117.591 476.291,116.967 477.071,116.342 477.851,115.718 478.631,115.094 479.411,114.470 480.192,113.846 480.972,113.222 481.752,112.597 482.532,111.973 483.312,111.349 484.093,110.725 484.873,110.101 485.653,109.477 486.433,108.852 487.213,108.228 487.994,107.604 488.774,106.980 489.554,106.356 490.334,105.732 491.114,105.108 491.895,104.483 492.675,103.859 493.455,103.235 494.235,102.611 495.015,101.987 495.796,101.363 496.576,100.738 497.356,100.114 498.136,99.490 498.916,98.866 499.697,98.242 500.477,97.618 501.257,96.993 502.037,96.369 502.817,95.745 503.598,95.121 504.378,94.497 505.158,93.873 505.938,93.249 506.718,92.624 507.499,92.000 508.279,91.376 509.059,90.752 "
     stroke-width="5"
     stroke="blue"
     fill="none" />
  <path
     id="path10"
     d="M40.94,465.998 41.720,465.993 42.500,465.987 43.280,465.977 44.060,465.966 44.840,465.951 45.621,465.935 46.401,465.915 47.181,465.894 47.961,465.869 48.741,465.842 49.522,465.813 50.302,465.781 51.082,465.747 51.862,465.710 52.642,465.671 53.423,465.629 54.203,465.585 54.983,465.538 55.763,465.489 56.543,465.437 57.324,465.383 58.104,465.326 58.884,465.267 59.664,465.205 60.444,465.141 61.225,465.074 62.005,465.005 62.785,464.933 63.565,464.859 64.345,464.782 65.126,464.703 65.906,464.622 66.686,464.537 67.466,464.451 68.246,464.362 69.027,464.270 69.807,464.176 70.587,464.079 71.367,463.980 72.147,463.879 72.928,463.774 73.708,463.668 74.488,463.559 75.268,463.447 76.048,463.333 76.829,463.217 77.609,463.098 78.389,462.976 79.169,462.853 79.949,462.726 80.730,462.597 81.510,462.466 82.290,462.332 83.070,462.196 83.850,462.057 84.631,461.916 85.411,461.772 86.191,461.626 86.971,461.477 87.751,461.326 88.532,461.173 89.312,461.017 90.092,460.858 90.872,460.697 91.652,460.534 92.433,460.368 93.213,460.200 93.993,460.029 94.773,459.856 95.553,459.680 96.334,459.502 97.114,459.322 97.894,459.139 98.674,458.953 99.454,458.765 100.235,458.575 101.015,458.382 101.795,458.187 102.575,457.989 103.355,457.789 104.136,457.587 104.916,457.382 105.696,457.174 106.476,456.965 107.256,456.752 108.037,456.538 108.817,456.321 109.597,456.101 110.377,455.879 111.157,455.655 111.938,455.428 112.718,455.199 113.498,454.967 114.278,454.733 115.058,454.497 115.839,454.258 116.619,454.017 117.399,453.773 118.179,453.527 118.959,453.279 119.740,453.028 120.520,452.774 121.300,452.519 122.080,452.261 122.860,452.000 123.641,451.738 124.421,451.472 125.201,451.205 125.981,450.935 126.761,450.662 127.542,450.388 128.322,450.111 129.102,449.831 129.882,449.549 130.662,449.265 131.443,448.978 132.223,448.689 133.003,448.398 133.783,448.104 134.563,447.808 135.344,447.510 136.124,447.209 136.904,446.906 137.684,446.601 138.464,446.293 139.245,445.983 140.025,445.670 140.805,445.355 141.585,445.038 142.365,444.719 143.146,444.397 143.926,444.073 144.706,443.746 145.486,443.417 146.266,443.086 147.047,442.753 147.827,442.417 148.607,442.079 149.387,441.738 150.167,441.396 150.948,441.051 151.728,440.703 152.508,440.354 153.288,440.002 154.068,439.647 154.849,439.291 155.629,438.932 156.409,438.571 157.189,438.208 157.969,437.842 158.750,437.474 159.530,437.104 160.310,436.731 161.090,436.356 161.870,435.979 162.651,435.600 163.431,435.218 164.211,434.834 164.991,434.448 165.771,434.060 166.552,433.669 167.332,433.276 168.112,432.881 168.892,432.484 169.672,432.084 170.453,431.682 171.233,431.278 172.013,430.872 172.793,430.463 173.573,430.052 174.354,429.639 175.134,429.224 175.914,428.806 176.694,428.387 177.474,427.965 178.255,427.541 179.035,427.114 179.815,426.686 180.595,426.255 181.375,425.822 182.156,425.387 182.936,424.950 183.716,424.510 184.496,424.068 185.276,423.624 186.057,423.178 186.837,422.730 187.617,422.280 188.397,421.827 189.177,421.372 189.958,420.915 190.738,420.456 191.518,419.995 192.298,419.532 193.078,419.066 193.859,418.598 194.639,418.128 195.419,417.656 196.199,417.182 196.979,416.706 197.760,416.227 198.540,415.747 199.320,415.264 200.100,414.779 200.880,414.292 201.661,413.803 202.441,413.312 203.221,412.819 204.001,412.323 204.781,411.826 205.562,411.326 206.342,410.825 207.122,410.321 207.902,409.815 208.682,409.307 209.463,408.797 210.243,408.285 211.023,407.771 211.803,407.254 212.583,406.736 213.364,406.216 214.144,405.693 214.924,405.168 215.704,404.642 216.484,404.113 217.265,403.582 218.045,403.050 218.825,402.515 219.605,401.978 220.385,401.439 221.166,400.898 221.946,400.355 222.726,399.810 223.506,399.263 224.286,398.714 225.067,398.163 225.847,397.610 226.627,397.055 227.407,396.498 228.187,395.938 228.968,395.377 229.748,394.814 230.528,394.249 231.308,393.682 232.088,393.113 232.869,392.542 233.649,391.969 234.429,391.394 235.209,390.817 235.989,390.238 236.770,389.657 237.550,389.074 238.330,388.489 239.110,387.902 239.890,387.314 240.671,386.723 241.451,386.130 242.231,385.536 243.011,384.939 243.791,384.341 244.571,383.740 245.352,383.138 246.132,382.534 246.912,381.927 247.692,381.319 248.472,380.709 249.253,380.097 250.033,379.483 250.813,378.868 251.593,378.250 252.373,377.631 253.154,377.009 253.934,376.386 254.714,375.761 255.494,375.134 256.274,374.505 257.055,373.874 257.835,373.241 258.615,372.606 259.395,371.970 260.175,371.332 260.956,370.692 261.736,370.050 262.516,369.406 263.296,368.760 264.076,368.112 264.857,367.463 265.637,366.812 266.417,366.159 267.197,365.504 267.977,364.847 268.758,364.189 269.538,363.528 270.318,362.866 271.098,362.202 271.878,361.536 272.659,360.869 273.439,360.199 274.219,359.528 274.999,358.855 275.779,358.180 276.560,357.504 277.340,356.825 278.120,356.145 278.900,355.463 279.680,354.780 280.461,354.094 281.241,353.407 282.021,352.718 282.801,352.027 283.581,351.335 284.362,350.641 285.142,349.945 285.922,349.247 286.702,348.547 287.482,347.846 288.263,347.143 289.043,346.439 289.823,345.732 290.603,345.024 291.383,344.314 292.164,343.603 292.944,342.889 293.724,342.175 294.504,341.458 295.284,340.739 296.065,340.019 296.845,339.298 297.625,338.574 298.405,337.849 299.185,337.122 299.966,336.394 300.746,335.664 301.526,334.932 302.306,334.198 303.086,333.463 303.867,332.726 304.647,331.988 305.427,331.248 306.207,330.506 306.987,329.762 307.768,329.017 308.548,328.270 309.328,327.522 310.108,326.772 310.888,326.020 311.669,325.267 312.449,324.512 313.229,323.756 314.009,322.998 314.789,322.238 315.570,321.476 316.350,320.714 317.130,319.949 317.910,319.183 318.690,318.415 319.471,317.646 320.251,316.875 321.031,316.102 321.811,315.328 322.591,314.552 323.372,313.775 324.152,312.996 324.932,312.216 325.712,311.434 326.492,310.651 327.273,309.865 328.053,309.079 328.833,308.291 329.613,307.501 330.393,306.710 331.174,305.917 331.954,305.123 332.734,304.327 333.514,303.529 334.294,302.730 335.075,301.930 335.855,301.128 336.635,300.324 337.415,299.519 338.195,298.713 338.976,297.905 339.756,297.095 340.536,296.284 341.316,295.472 342.096,294.658 342.877,293.842 343.657,293.025 344.437,292.207 345.217,291.387 345.997,290.565 346.778,289.743 347.558,288.918 348.338,288.092 349.118,287.265 349.898,286.436 350.679,285.606 351.459,284.774 352.239,283.941 353.019,283.107 353.799,282.271 354.580,281.433 355.360,280.595 356.140,279.754 356.920,278.913 357.700,278.069 358.481,277.225 359.261,276.379 360.041,275.531 360.821,274.683 361.601,273.832 362.382,272.981 363.162,272.128 363.942,271.273 364.722,270.417 365.502,269.560 366.283,268.701 367.063,267.841 367.843,266.980 368.623,266.117 369.403,265.253 370.184,264.388 370.964,263.521 371.744,262.652 372.524,261.783 373.304,260.912 374.085,260.040 374.865,259.166 375.645,258.291 376.425,257.414 377.205,256.537 377.986,255.658 378.766,254.777 379.546,253.895 380.326,253.012 381.106,252.128 381.887,251.242 382.667,250.355 383.447,249.467 384.227,248.577 385.007,247.686 385.788,246.794 386.568,245.900 387.348,245.005 388.128,244.109 388.908,243.211 389.689,242.312 390.469,241.412 391.249,240.511 392.029,239.608 392.809,238.704 393.590,237.799 394.370,236.892 395.150,235.985 395.930,235.076 396.710,234.165 397.491,233.254 398.271,232.341 399.051,231.427 399.831,230.511 400.611,229.595 401.392,228.677 402.172,227.758 402.952,226.837 403.732,225.916 404.512,224.993 405.293,224.069 406.073,223.143 406.853,222.217 407.633,221.289 408.413,220.360 409.194,219.430 409.974,218.498 410.754,217.566 411.534,216.632 412.314,215.697 413.095,214.761 413.875,213.823 414.655,212.884 415.435,211.945 416.215,211.003 416.996,210.061 417.776,209.118 418.556,208.173 419.336,207.227 420.116,206.280 420.897,205.332 421.677,204.383 422.457,203.432 423.237,202.481 424.017,201.528 424.798,200.574 425.578,199.619 426.358,198.662 427.138,197.705 427.918,196.746 428.699,195.787 429.479,194.826 430.259,193.864 431.039,192.900 431.819,191.936 432.600,190.971 433.380,190.004 434.160,189.036 434.940,188.068 435.720,187.098 436.501,186.127 437.281,185.154 438.061,184.181 438.841,183.207 439.621,182.231 440.402,181.254 441.182,180.277 441.962,179.298 442.742,178.318 443.522,177.337 444.302,176.355 445.083,175.372 445.863,174.387 446.643,173.402 447.423,172.415 448.203,171.428 448.984,170.439 449.764,169.450 450.544,168.459 451.324,167.467 452.104,166.474 452.885,165.480 453.665,164.485 454.445,163.489 455.225,162.492 456.005,161.494 456.786,160.494 457.566,159.494 458.346,158.493 459.126,157.490 459.906,156.487 460.687,155.482 461.467,154.477 462.247,153.470 463.027,152.463 463.807,151.454 464.588,150.445 465.368,149.434 466.148,148.422 466.928,147.410 467.708,146.396 468.489,145.381 469.269,144.366 470.049,143.349 470.829,142.331 471.609,141.313 472.390,140.293 473.170,139.272 473.950,138.250 474.730,137.228 475.510,136.204 476.291,135.179 477.071,134.154 477.851,133.127 478.631,132.099 479.411,131.071 480.192,130.041 480.972,129.011 481.752,127.979 482.532,126.947 483.312,125.913 484.093,124.879 484.873,123.843 485.653,122.807 486.433,121.770 487.213,120.732 487.994,119.692 488.774,118.652 489.554,117.611 490.334,116.569 491.114,115.526 491.895,114.482 492.675,113.437 493.455,112.392 494.235,111.345 495.015,110.297 495.796,109.249 496.576,108.199 497.356,107.149 498.136,106.097 498.916,105.045 499.697,103.992 500.477,102.938 501.257,101.883 502.037,100.827 502.817,99.770 503.598,98.712 504.378,97.654 505.158,96.594 505.938,95.534 506.718,94.473 507.499,93.410 508.279,92.347 509.059,91.283 "
     stroke-width="5"
     stroke="blue"
     fill="none" />
  <circle
     id="circle11"
     cx="40.94"
     cy="465.998"
     r="7.5"
     stroke-width="5"
     stroke="blue"
     fill="white" />
  <circle
     id="circle12"
     cx="509.059"
     cy="91.283"
     r="7.5"
     stroke-width="5"
     stroke="blue"
     fill="white" />
</svg>
